<svg width="160" height="160" viewBox="0 0 160 160" fill="none" xmlns="http://www.w3.org/2000/svg">
<path d="M160 80C160 124.183 124.183 160 80 160C35.8172 160 0 124.183 0 80C0 35.8172 35.8172 0 80 0C124.183 0 160 35.8172 160 80ZM16 80C16 115.346 44.6538 144 80 144C115.346 144 144 115.346 144 80C144 44.6538 115.346 16 80 16C44.6538 16 16 44.6538 16 80Z" fill="#E7F1F9"/>
<path d="M80 0C94.7538 1.75937e-07 109.22 4.07995 121.8 11.7888C134.38 19.4976 144.582 30.535 151.281 43.6807C157.979 56.8264 160.911 71.5684 159.753 86.2767C158.596 100.985 153.393 115.087 144.721 127.023C136.049 138.959 124.245 148.264 110.615 153.91C96.9841 159.556 82.0575 161.323 67.4854 159.015C52.9132 156.707 39.2631 150.414 28.0443 140.833C16.8254 131.251 8.47473 118.753 3.91553 104.722L19.1324 99.7772C22.7798 111.003 29.4603 121.001 38.4354 128.666C47.4105 136.331 58.3306 141.366 69.9883 143.212C81.646 145.058 93.5872 143.645 104.492 139.128C115.396 134.611 124.839 127.167 131.777 117.618C138.715 108.069 142.877 96.788 143.803 85.0213C144.729 73.2547 142.383 61.4611 137.024 50.9446C131.666 40.428 123.504 31.5981 113.44 25.431C103.376 19.264 91.803 16 80 16V0Z" fill="#00A75C"/>
<path d="M3.91548 104.721C-1.30519 88.6538 -1.30516 71.3459 3.91557 55.2784L19.1325 60.2227C14.9559 73.0767 14.9558 86.923 19.1324 99.7771L3.91548 104.721Z" fill="#E9841D"/>
<path d="M3.91548 55.2786C9.13615 39.2111 19.3095 25.2087 32.9774 15.2785L42.3819 28.2228C31.4476 36.167 23.3089 47.3689 19.1324 60.2229L3.91548 55.2786Z" fill="#EC133D"/>
<path d="M32.9772 15.2786C46.645 5.34838 63.1057 -8.25731e-06 80 0L80 16C66.4846 16 53.316 20.2787 42.3818 28.2229L32.9772 15.2786Z" fill="#B6D4ED"/>
</svg>
