<svg width="200" height="100" viewBox="0 0 200 100" fill="none" xmlns="http://www.w3.org/2000/svg">
<g clip-path="url(#clip0_2009_24)">
<rect width="200" height="100" fill="white"/>
<path d="M200 100C200 86.8678 197.413 73.8642 192.388 61.7317C187.362 49.5991 179.997 38.5752 170.711 29.2893C161.425 20.0035 150.401 12.6375 138.268 7.61205C126.136 2.58658 113.132 -5.74026e-07 100 0C86.8678 5.74026e-07 73.8642 2.58658 61.7317 7.61205C49.5991 12.6375 38.5752 20.0035 29.2893 29.2893C20.0035 38.5752 12.6375 49.5991 7.61204 61.7317C2.58657 73.8642 -1.14805e-06 86.8678 0 100L20 100C20 89.4943 22.0693 79.0914 26.0896 69.3853C30.11 59.6793 36.0028 50.8601 43.4315 43.4315C50.8601 36.0028 59.6793 30.11 69.3853 26.0896C79.0914 22.0693 89.4942 20 100 20C110.506 20 120.909 22.0693 130.615 26.0896C140.321 30.11 149.14 36.0028 156.569 43.4315C163.997 50.8601 169.89 59.6793 173.91 69.3853C177.931 79.0914 180 89.4943 180 100H200Z" fill="#E7F1F9"/>
<path d="M47.0081 15.1952C32.7237 24.121 20.9254 36.5105 12.7079 51.2138C4.49045 65.9172 0.12011 82.458 0.00244019 99.3014L20.002 99.4411C20.0961 85.9664 23.5924 72.7337 30.1663 60.9711C36.7403 49.2084 46.179 39.2968 57.6065 32.1561L47.0081 15.1952Z" fill="#E9841D"/>
</g>
<defs>
<clipPath id="clip0_2009_24">
<rect width="200" height="100" fill="white"/>
</clipPath>
</defs>
</svg>
